<mxfile host="app.diagrams.net" modified="2023-03-30T15:05:58.903Z" agent="Mozilla/5.0 (Windows NT 10.0; Win64; x64) AppleWebKit/537.36 (KHTML, like Gecko) Chrome/111.0.0.0 Safari/537.36 Edg/111.0.1661.54" version="21.1.2" etag="3ELkxsFv-c8oMO-n-sk9" type="github">
  <diagram name="PÃ¡gina-1" id="hDU2Ju3tY9wiXGhY1TgK">
    <mxGraphModel>
      <root>
        <mxCell id="0" />
        <mxCell id="1" parent="0" />
      </root>
    </mxGraphModel>
  </diagram>
</mxfile>
